

Release info:

General
Format : Matroska
Format version : Version 2
File size : 703 MiB
Duration : 2h 1mn
Overall bit rate : 809 Kbps
Movie name : Khiladi 786 2012 DVDScr Hindi

Video
ID : 1
Format : MPEG-4 Visual
Format profile : Advanced Simple@L5
Format settings, BVOP : Yes
Format settings, QPel : Yes
Format settings, GMC : No warppoints
Format settings, Matrix : Default (H.263)
Codec ID : V_MS/VFW/FOURCC / XVID
Codec ID/Hint : XviD
Duration : 2h 1mn
Bit rate : 681 Kbps
Width : 640 pixels
Height : 272 pixels
Display aspect ratio : 2.35:1
Frame rate mode : Constant
Frame rate : 25.000 fps
Color space : YUV
Chroma subsampling : 4:2:0
Bit depth : 8 bits
Scan type : Progressive
Compression mode : Lossy
Bits/(Pixel*Frame) : 0.156
Stream size : 592 MiB (84%)
Title : Khiladi 786 2012 DVDScr Hindi
Language : Hindi
Default : Yes
Forced : No

Audio
ID : 2
Format : MPEG Audio
Format version : Version 1
Format profile : Layer 3
Mode : Joint stereo
Mode extension : MS Stereo
Muxing mode : Header stripping
Codec ID : A_MPEG/L3
Codec ID/Hint : MP3
Duration : 2h 1mn
Bit rate mode : Constant
Bit rate : 112 Kbps
Channel(s) : 2 channels
Sampling rate : 48.0 KHz
Compression mode : Lossy
Stream size : 97.4 MiB (14%)
Title : Khiladi 786 2012 DVDScr Hindi
Language : Hindi
Default : Yes
Forced : No



Source:
credit to original movie ripper (Thanks)

IMDB Info:

Born to an owner of a marriage bureau Champak Lal, Mansukh has been a complete failure ever since he has grown up and tried to help his father in their family business... 

Director: Ashish R. Mohan
Writers: Himesh Reshammiya (story), Bunty Rathore (dialogue), 
Stars: Asin, Raj Babbar and Vipin Bakshi 

Genres: Action | Comedy
 
http://www.imdb.com/title/tt2166214/

Screen Shot:
 
http://www.shotpix.com/images/57780482530829850535.png 
http://www.shotpix.com/images/49355541674004918943.png 
http://www.shotpix.com/images/44866582250450091680.png 
http://www.shotpix.com/images/38188835457351909893.png 
http://www.shotpix.com/images/82209034752457146988.png 
http://www.shotpix.com/images/86970295632370910281.png 
http://www.shotpix.com/images/19305276431951554976.png 
http://www.shotpix.com/images/41674644151140821888.png 
http://www.shotpix.com/images/85101266466273338652.png